<?xml version="1.0" encoding="iso-8859-1"?>
<!-- Generator: Adobe Illustrator 19.0.0, SVG Export Plug-In . SVG Version: 6.00 Build 0)  -->
<svg version="1.1" id="Capa_1" xmlns="http://www.w3.org/2000/svg" xmlns:xlink="http://www.w3.org/1999/xlink" x="0px" y="0px"
	 viewBox="0 0 512.001 512.001" style="enable-background:new 0 0 512.001 512.001;" xml:space="preserve">
<path style="fill:#70B5E8;" d="M376.433,45.594c-64.74,0-274.307,0-339.429,0c-16.169,0-29.353,13.101-29.353,29.353
	c0,17.291,0,349.063,0,362.44c0,16.171,13.102,29.353,29.353,29.353c14.523,0,82.884,0,97.441,0c36.216,0,205.108,0,241.987,0
	c10.029,0,19.008-5.048,24.339-12.942c7.415-10.976,4.267-20.823,5.013-31.752v-7.671c0-110.359,0-238.953,0-339.429
	C405.786,58.774,392.682,45.594,376.433,45.594z"/>
<path style="fill:#52A5D8;" d="M37.917,437.387c0-84.908,0-277.175,0-362.44c0-16.211,13.142-29.353,29.353-29.353
	c-18.736,0-11.531,0-30.265,0c-16.21,0-29.353,13.141-29.353,29.353c0,18.433,0,344.155,0,362.44
	c0,16.171,13.102,29.353,29.353,29.353c18.734,0,11.528,0,30.265,0C51.122,466.74,37.917,453.658,37.917,437.387z"/>
<path style="fill:#666666;" d="M405.786,74.947c0-16.211-13.142-29.353-29.353-29.353H220.379l0,0
	c-202.116,0-193.578-3.06-205.103,9.617c-4.737,5.213-7.625,12.137-7.625,19.736v49.987h212.728l0,0h185.407V74.947z"/>
<path style="fill:#535454;" d="M37.917,74.947c0-16.239,13.169-29.352,29.351-29.353C41.01,45.725,18.793,41.112,9.693,64.172
	c-2.64,6.69-2.156,6.661-2.041,60.762h30.265C37.917,116.97,37.917,87.414,37.917,74.947z"/>
<path style="fill:#52A5D8;" d="M492.546,274.98H145.263c-6.603,0-12.006-5.403-12.006-12.006v-81.036
	c0-6.603,5.403-12.006,12.006-12.006h347.283c6.603,0,12.006,5.403,12.006,12.006v81.036
	C504.552,269.577,499.149,274.98,492.546,274.98z"/>
<path style="fill:#FFB70D;" d="M492.546,422.047H145.263c-6.603,0-12.006-5.403-12.006-12.006v-81.036
	c0-6.603,5.403-12.006,12.006-12.006h347.283c6.603,0,12.006,5.403,12.006,12.006v81.036
	C504.552,416.645,499.149,422.047,492.546,422.047z"/>
<path style="fill:#3094C6;" d="M163.272,262.974v-81.036c0-6.603,5.403-12.006,12.006-12.006h-30.015
	c-6.603,0-12.006,5.403-12.006,12.006v81.036c0,6.603,5.403,12.006,12.006,12.006h30.015
	C168.675,274.98,163.272,269.577,163.272,262.974z"/>
<path style="fill:#F4A403;" d="M163.272,410.041v-81.036c0-6.603,5.403-12.006,12.006-12.006h-30.015
	c-6.603,0-12.006,5.403-12.006,12.006v81.036c0,6.603,5.403,12.006,12.006,12.006h30.015
	C168.675,422.047,163.272,416.645,163.272,410.041z"/>
<path d="M51.088,228.804h14.956c4.145,0,7.504-3.359,7.504-7.504c0-4.145-3.359-7.504-7.504-7.504H51.088
	c-4.145,0-7.504,3.359-7.504,7.504C43.584,225.445,46.942,228.804,51.088,228.804z"/>
<path d="M51.088,192.785h14.956c4.145,0,7.504-3.359,7.504-7.504c0-4.145-3.359-7.504-7.504-7.504H51.088
	c-4.145,0-7.504,3.359-7.504,7.504C43.584,189.427,46.942,192.785,51.088,192.785z"/>
<path d="M51.088,264.822h14.956c4.145,0,7.504-3.359,7.504-7.504c0-4.144-3.359-7.504-7.504-7.504H51.088
	c-4.145,0-7.504,3.359-7.504,7.504C43.584,261.463,46.942,264.822,51.088,264.822z"/>
<path d="M51.088,300.84h14.956c4.145,0,7.504-3.359,7.504-7.504c0-4.144-3.359-7.504-7.504-7.504H51.088
	c-4.145,0-7.504,3.36-7.504,7.504C43.584,297.481,46.942,300.84,51.088,300.84z"/>
<path d="M51.088,336.858h14.956c4.145,0,7.504-3.359,7.504-7.504c0-4.144-3.359-7.504-7.504-7.504H51.088
	c-4.145,0-7.504,3.36-7.504,7.504C43.584,333.499,46.942,336.858,51.088,336.858z"/>
<path d="M51.088,372.876h14.956c4.145,0,7.504-3.359,7.504-7.504c0-4.144-3.359-7.504-7.504-7.504H51.088
	c-4.145,0-7.504,3.36-7.504,7.504C43.584,369.518,46.942,372.876,51.088,372.876z"/>
<path d="M51.088,408.895h14.956c4.145,0,7.504-3.359,7.504-7.504c0-4.144-3.359-7.504-7.504-7.504H51.088
	c-4.145,0-7.504,3.36-7.504,7.504C43.584,405.536,46.942,408.895,51.088,408.895z"/>
<path d="M204.169,343.883c-2.931-2.929-7.682-2.929-10.612,0l-18.518,18.518c-2.93,2.931-2.93,7.682,0,10.613l18.518,18.518
	c1.466,1.465,3.387,2.197,5.307,2.197c1.92,0,3.841-0.732,5.307-2.197c2.93-2.931,2.93-7.682,0-10.612l-13.213-13.212l13.213-13.212
	C207.099,351.564,207.099,346.813,204.169,343.883z"/>
<path d="M266.048,343.883c-2.931-2.929-7.682-2.929-10.612,0c-2.93,2.931-2.93,7.682,0,10.612l13.213,13.212l-13.213,13.212
	c-2.93,2.931-2.93,7.682,0,10.612c1.466,1.465,3.387,2.197,5.307,2.197c1.92,0,3.841-0.732,5.307-2.197l18.518-18.518
	c2.93-2.931,2.93-7.682,0-10.613L266.048,343.883z"/>
<path d="M241.958,333.738c-3.9-1.416-8.201,0.591-9.618,4.484l-20.799,57.143c-1.418,3.895,0.591,8.2,4.484,9.618
	c0.848,0.308,1.714,0.454,2.565,0.454c3.065,0,5.943-1.893,7.053-4.94l20.799-57.143
	C247.86,339.462,245.852,335.155,241.958,333.738z"/>
<path d="M58.019,82.231c-0.19-0.45-0.42-0.891-0.69-1.291c-0.279-0.42-0.59-0.8-0.93-1.142c-1.401-1.4-3.332-2.2-5.313-2.2
	c-1.972,0-3.912,0.8-5.304,2.2c-0.35,0.341-0.66,0.721-0.939,1.142c-0.271,0.399-0.5,0.84-0.681,1.291
	c-0.19,0.45-0.34,0.93-0.43,1.4c-0.1,0.49-0.149,0.982-0.149,1.472c0,1.971,0.8,3.911,2.2,5.303c1.392,1.4,3.332,2.201,5.304,2.201
	c0.489,0,0.979-0.051,1.471-0.15c0.479-0.09,0.95-0.24,1.4-0.43c0.45-0.181,0.891-0.42,1.302-0.69c0.409-0.27,0.79-0.58,1.141-0.93
	c1.391-1.392,2.191-3.332,2.191-5.303c0-0.49-0.051-0.98-0.15-1.472C58.349,83.162,58.199,82.682,58.019,82.231z"/>
<path d="M76.518,77.599c-1.972,0-3.902,0.8-5.304,2.2c-1.4,1.392-2.2,3.332-2.2,5.304c0,1.971,0.8,3.911,2.2,5.303
	c1.401,1.4,3.332,2.201,5.304,2.201c1.98,0,3.911-0.801,5.313-2.201c1.391-1.392,2.201-3.332,2.201-5.303
	c0-1.972-0.811-3.912-2.201-5.304C80.43,78.399,78.499,77.599,76.518,77.599z"/>
<path d="M108.885,82.231c-0.19-0.45-0.42-0.891-0.69-1.291c-0.27-0.42-0.579-0.8-0.93-1.142c-0.35-0.35-0.729-0.659-1.141-0.939
	c-0.41-0.271-0.84-0.5-1.291-0.69c-0.46-0.18-0.931-0.33-1.411-0.43c-0.96-0.19-1.961-0.19-2.931,0c-0.48,0.1-0.95,0.25-1.401,0.43
	c-0.46,0.19-0.89,0.42-1.301,0.69c-0.41,0.28-0.79,0.59-1.142,0.939c-0.34,0.341-0.659,0.721-0.93,1.142
	c-0.27,0.399-0.5,0.84-0.689,1.291c-0.19,0.45-0.33,0.93-0.431,1.4c-0.09,0.49-0.14,0.982-0.14,1.472c0,1.971,0.8,3.911,2.19,5.303
	c0.351,0.35,0.73,0.66,1.142,0.93c0.41,0.271,0.84,0.51,1.301,0.69c0.45,0.189,0.92,0.34,1.401,0.43
	c0.479,0.1,0.979,0.15,1.471,0.15c0.49,0,0.979-0.051,1.461-0.15c0.479-0.09,0.95-0.24,1.411-0.43c0.45-0.181,0.88-0.42,1.291-0.69
	c0.41-0.27,0.79-0.58,1.141-0.93c1.401-1.392,2.201-3.332,2.201-5.303c0-0.49-0.05-0.98-0.15-1.472
	C109.215,83.162,109.075,82.682,108.885,82.231z"/>
<path d="M312.126,77.598H133.203c-4.145,0-7.504,3.359-7.504,7.504s3.359,7.504,7.504,7.504h178.923
	c4.145,0,7.504-3.359,7.504-7.504C319.629,80.958,316.27,77.598,312.126,77.598z"/>
<path d="M369.195,77.598h-30.683c-4.145,0-7.504,3.359-7.504,7.504s3.359,7.504,7.504,7.504h30.683c4.145,0,7.504-3.359,7.504-7.504
	C376.699,80.958,373.34,77.598,369.195,77.598z"/>
<path d="M332.094,247.806h98.446c4.145,0,7.504-3.359,7.504-7.504c0-4.145-3.359-7.504-7.504-7.504h-98.446
	c-4.145,0-7.504,3.359-7.504,7.504C324.59,244.447,327.949,247.806,332.094,247.806z"/>
<path d="M388.569,211.788c4.145,0,7.504-3.359,7.504-7.504c0-4.145-3.359-7.504-7.504-7.504h-28.514
	c-4.145,0-7.504,3.359-7.504,7.504c0,4.145,3.359,7.504,7.504,7.504H388.569z"/>
<path d="M463.743,196.78h-46.409c-4.145,0-7.504,3.359-7.504,7.504c0,4.145,3.359,7.504,7.504,7.504h46.409
	c4.145,0,7.504-3.359,7.504-7.504C471.247,200.14,467.887,196.78,463.743,196.78z"/>
<path d="M335.292,204.284c0-4.145-3.359-7.504-7.504-7.504h-94.798c-4.145,0-7.504,3.359-7.504,7.504
	c0,4.145,3.359,7.504,7.504,7.504h94.798C331.934,211.788,335.292,208.429,335.292,204.284z"/>
<path d="M275.752,232.799c-4.145,0-7.504,3.359-7.504,7.504c0,4.145,3.359,7.504,7.504,7.504h28.514
	c4.145,0,7.504-3.359,7.504-7.504c0-4.145-3.359-7.504-7.504-7.504H275.752z"/>
<path d="M231.626,232.799c-4.145,0-7.504,3.359-7.504,7.504c0,4.145,3.359,7.504,7.504,7.504h14.956
	c4.145,0,7.504-3.359,7.504-7.504c0-4.145-3.359-7.504-7.504-7.504H231.626z"/>
<path d="M194.3,232.799h-14.956c-4.145,0-7.504,3.359-7.504,7.504c0,4.145,3.359,7.504,7.504,7.504H194.3
	c4.145,0,7.504-3.359,7.504-7.504C201.804,236.158,198.445,232.799,194.3,232.799z"/>
<path d="M194.3,196.78h-14.956c-4.145,0-7.504,3.359-7.504,7.504c0,4.145,3.359,7.504,7.504,7.504H194.3
	c4.145,0,7.504-3.359,7.504-7.504C201.804,200.14,198.445,196.78,194.3,196.78z"/>
<path d="M469.977,236.139c-0.271-0.41-0.58-0.801-0.93-1.142c-0.341-0.35-0.73-0.66-1.142-0.939c-0.41-0.271-0.84-0.5-1.291-0.69
	c-0.46-0.18-0.93-0.33-1.411-0.42c-0.96-0.2-1.961-0.2-2.931,0c-0.479,0.09-0.951,0.24-1.401,0.42c-0.449,0.19-0.89,0.42-1.301,0.69
	c-0.41,0.279-0.79,0.59-1.141,0.939c-0.34,0.34-0.65,0.73-0.93,1.142c-0.271,0.41-0.5,0.84-0.69,1.291
	c-0.19,0.46-0.33,0.93-0.43,1.41c-0.09,0.48-0.141,0.971-0.141,1.462c0,0.489,0.051,0.98,0.141,1.471c0.1,0.48,0.239,0.95,0.43,1.4
	c0.19,0.45,0.42,0.891,0.69,1.291c0.279,0.42,0.59,0.801,0.93,1.142c0.35,0.35,0.729,0.66,1.141,0.939
	c0.41,0.271,0.851,0.5,1.301,0.69c0.45,0.18,0.921,0.33,1.401,0.42c0.49,0.1,0.98,0.15,1.471,0.15c0.49,0,0.981-0.051,1.461-0.15
	c0.48-0.09,0.95-0.24,1.411-0.42c0.45-0.19,0.88-0.42,1.291-0.69c0.41-0.279,0.8-0.59,1.142-0.939c0.35-0.34,0.659-0.721,0.93-1.142
	c0.27-0.399,0.51-0.84,0.689-1.291c0.19-0.449,0.341-0.92,0.431-1.4c0.1-0.49,0.149-0.98,0.149-1.471c0-0.49-0.05-0.98-0.149-1.462
	c-0.09-0.48-0.24-0.949-0.431-1.41C470.488,236.98,470.248,236.549,469.977,236.139z"/>
<path d="M492.491,282.321c10.757,0,19.51-8.752,19.51-19.51v-81.035c0-10.757-8.752-19.51-19.51-19.51h-20.937
	c-4.144,0-7.504,3.359-7.504,7.504c0,4.145,3.36,7.504,7.504,7.504h20.937c2.44,0,4.502,2.062,4.502,4.502v81.035
	c0,2.44-2.062,4.502-4.502,4.502c-29.822,0-339.31,0-347.282,0c-2.441,0-4.502-2.062-4.502-4.502v-81.035
	c0-2.44,2.061-4.502,4.502-4.502c12.457,0,278.382,0,291.328,0c4.145,0,7.504-3.359,7.504-7.504c0-4.145-3.359-7.504-7.504-7.504
	h-23.302c0-13.963,0-73.452,0-87.482c0-20.323-16.533-36.857-36.857-36.857C15.286,37.979,37.136,37.818,34.167,38.043
	C18.325,39.233,5.337,50.405,1.36,65.216c-1.871,6.959-1.268,7.509-1.268,102.557c0,4.145,3.359,7.504,7.504,7.504
	s7.504-3.359,7.504-7.504v-35.497h383.127v29.99H145.209c-10.757,0-19.51,8.752-19.51,19.51v81.035
	c0,10.757,8.752,19.51,19.51,19.51h253.019v27.012H145.209c-10.757,0-19.51,8.752-19.51,19.51v81.036
	c0,10.757,8.752,19.51,19.51,19.51h253.019v7.837c0,12.047-9.802,21.849-21.849,21.849H119.467c-4.145,0-7.504,3.36-7.504,7.504
	c0,4.145,3.359,7.504,7.504,7.504h256.911c20.323,0,36.857-16.533,36.857-36.857v-7.837h79.256c10.757,0,19.51-8.752,19.51-19.51
	v-81.036c0-10.757-8.752-19.51-19.51-19.51h-79.256v-27.012H492.491z M15.101,117.268c0.033-43.956-2.295-49.98,7.112-58.598
	c3.9-3.56,9.086-5.735,14.737-5.735h339.429c12.047,0,21.849,9.802,21.849,21.849v42.483
	C398.228,117.268,15.101,117.268,15.101,117.268z M492.491,324.34c2.44,0,4.502,2.062,4.502,4.502v81.036
	c0,2.441-2.062,4.502-4.502,4.502c-29.822,0-339.31,0-347.282,0c-2.441,0-4.502-2.061-4.502-4.502v-81.036
	c0-2.44,2.061-4.502,4.502-4.502C153.585,324.34,463.938,324.34,492.491,324.34z"/>
<path d="M84.449,459.074H36.95c-12.047,0-21.849-9.802-21.849-21.849V202.79c0-4.145-3.359-7.504-7.504-7.504
	s-7.504,3.359-7.504,7.504v234.435c0,20.323,16.533,36.857,36.857,36.857h47.5c4.145,0,7.504-3.359,7.504-7.504
	C91.953,462.434,88.595,459.074,84.449,459.074z"/>
<g>
</g>
<g>
</g>
<g>
</g>
<g>
</g>
<g>
</g>
<g>
</g>
<g>
</g>
<g>
</g>
<g>
</g>
<g>
</g>
<g>
</g>
<g>
</g>
<g>
</g>
<g>
</g>
<g>
</g>
</svg>
