<svg id="Layer_1" enable-background="new 0 0 512.002 512.002" height="512" viewBox="0 0 512.002 512.002" width="512" xmlns="http://www.w3.org/2000/svg"><g><g><path d="m481.502 199.876h-17.915c-4.808-17.833-11.89-34.916-21.127-50.961l12.681-12.681c5.745-5.745 8.909-13.404 8.909-21.567 0-8.162-3.164-15.821-8.909-21.566l-36.24-36.239c-11.892-11.891-31.241-11.893-43.133 0l-12.676 12.676c-16.045-9.24-33.13-16.323-50.966-21.132v-17.906c0-16.817-13.682-30.5-30.5-30.5h-51.25c-16.818 0-30.5 13.683-30.5 30.5v17.905c-17.829 4.808-34.913 11.892-50.964 21.134l-12.678-12.678c-11.892-11.891-31.241-11.893-43.133 0l-36.24 36.239c-11.892 11.893-11.892 31.241 0 43.134l12.677 12.677c-9.238 16.043-16.321 33.125-21.131 50.965h-17.907c-16.817 0-30.5 13.683-30.5 30.5v51.251c0 16.817 13.682 30.499 30.5 30.499h17.906c4.808 17.831 11.891 34.913 21.134 50.964l-12.678 12.678c-11.892 11.893-11.892 31.241 0 43.134l36.24 36.24c11.893 11.892 31.242 11.892 43.133 0l12.677-12.678c16.044 9.239 33.126 16.321 50.964 21.131v17.907c0 16.817 13.682 30.5 30.5 30.5h51.25c16.818 0 30.5-13.683 30.5-30.5v-17.905c17.831-4.808 34.912-11.891 50.964-21.134l12.678 12.679c11.893 11.892 31.241 11.892 43.133 0l36.239-36.24c5.745-5.745 8.909-13.404 8.909-21.566 0-8.163-3.164-15.822-8.909-21.567l-12.677-12.677c9.239-16.044 16.321-33.125 21.131-50.965h17.908c16.817 0 30.5-13.682 30.5-30.499v-51.251c0-16.818-13.682-30.501-30.5-30.501zm10.5 81.751c0 5.789-4.71 10.499-10.5 10.499h-25.716c-4.659 0-8.701 3.218-9.746 7.758-4.847 21.071-13.139 41.072-24.646 59.447-2.474 3.949-1.891 9.084 1.404 12.379l18.201 18.2c1.967 1.967 3.051 4.604 3.051 7.425 0 2.82-1.083 5.457-3.051 7.424l-36.24 36.24c-4.094 4.093-10.755 4.094-14.848 0l-18.201-18.201c-3.295-3.294-8.429-3.877-12.378-1.404-18.39 11.514-38.39 19.807-59.447 24.648-4.541 1.045-7.759 5.087-7.759 9.746v25.714c0 5.79-4.71 10.5-10.5 10.5h-51.25c-5.79 0-10.5-4.71-10.5-10.5v-25.716c0-4.659-3.218-8.701-7.758-9.746-21.069-4.846-41.07-13.138-59.447-24.646-1.636-1.024-3.476-1.524-5.304-1.524-2.584 0-5.145.999-7.075 2.929l-18.2 18.2c-4.094 4.095-10.754 4.095-14.848 0l-36.24-36.24c-4.094-4.094-4.094-10.755 0-14.849l18.201-18.2c3.295-3.295 3.878-8.429 1.405-12.378-11.514-18.39-19.807-38.391-24.649-59.447-1.044-4.541-5.086-7.759-9.746-7.759h-25.715c-5.79 0-10.5-4.71-10.5-10.499v-51.251c0-5.79 4.71-10.5 10.5-10.5h25.716c4.659 0 8.701-3.218 9.746-7.758 4.847-21.072 13.14-41.072 24.646-59.447 2.473-3.949 1.891-9.084-1.404-12.379l-18.2-18.2c-4.094-4.094-4.094-10.755 0-14.849l36.24-36.239c4.095-4.094 10.756-4.093 14.849 0l18.201 18.2c3.294 3.294 8.428 3.878 12.377 1.404 18.39-11.514 38.391-19.807 59.447-24.648 4.541-1.045 7.759-5.087 7.759-9.746v-25.714c0-5.79 4.71-10.5 10.5-10.5h51.25c5.79 0 10.5 4.71 10.5 10.5v25.714c0 4.659 3.218 8.701 7.759 9.746 21.066 4.844 41.067 13.136 59.448 24.646 3.951 2.473 9.084 1.891 12.378-1.404l18.199-18.198c4.095-4.094 10.755-4.093 14.848 0l36.24 36.239c1.967 1.967 3.051 4.604 3.051 7.424 0 2.821-1.083 5.458-3.051 7.425l-18.203 18.203c-3.295 3.295-3.878 8.429-1.405 12.378 11.508 18.381 19.799 38.381 24.643 59.444 1.044 4.541 5.086 7.759 9.746 7.759h25.724c5.79 0 10.5 4.71 10.5 10.5v51.251z"/><path d="m321.18 379.924c-19.948 10.518-42.487 16.077-65.179 16.077-77.196 0-140-62.804-140-140 0-22.691 5.558-45.228 16.074-65.173 2.576-4.886.703-10.935-4.183-13.51-4.885-2.575-10.933-.704-13.51 4.182-12.025 22.811-18.381 48.572-18.381 74.501 0 88.225 71.776 160 160 160 25.931 0 51.695-6.357 74.507-18.386 4.885-2.576 6.758-8.624 4.182-13.51s-8.625-6.756-13.51-4.181z"/><path d="m256.001 96.001c-25.927 0-51.691 6.357-74.507 18.386-4.885 2.575-6.758 8.623-4.183 13.509s8.623 6.758 13.51 4.183c19.952-10.518 42.491-16.077 65.18-16.077 77.196 0 140 62.804 140 140 0 22.687-5.558 45.224-16.074 65.174-2.575 4.886-.702 10.935 4.184 13.51 1.487.784 3.082 1.155 4.654 1.155 3.592 0 7.063-1.94 8.854-5.339 12.025-22.814 18.381-48.576 18.381-74.5.001-88.226-71.775-160.001-159.999-160.001z"/><path d="m317.226 183.123c-9.022 0-17.503 3.514-23.882 9.893l-54.324 54.324-20.362-20.361c-6.379-6.38-14.86-9.894-23.882-9.894s-17.503 3.514-23.883 9.893c-13.168 13.169-13.168 34.596 0 47.765l44.245 44.245c6.584 6.584 15.233 9.876 23.882 9.876s17.298-3.292 23.882-9.876l78.207-78.207c13.168-13.169 13.168-34.596 0-47.765-6.379-6.379-14.861-9.893-23.883-9.893zm9.741 43.515-78.207 78.207c-5.37 5.371-14.11 5.371-19.48 0l-44.245-44.245c-5.371-5.37-5.371-14.109 0-19.479 2.602-2.603 6.061-4.035 9.74-4.035s7.138 1.433 9.74 4.035l27.434 27.433c3.905 3.904 10.237 3.904 14.142 0l61.396-61.396c2.602-2.602 6.061-4.034 9.74-4.034s7.139 1.433 9.74 4.035c2.602 2.602 4.034 6.061 4.034 9.74 0 3.678-1.433 7.137-4.034 9.739z"/><path d="m149.931 159.937c2.56 0 5.121-.977 7.074-2.93 3.905-3.905 3.905-10.237 0-14.143-3.905-3.904-10.236-3.904-14.142 0l-.005.005c-3.905 3.905-3.903 10.234.002 14.14 1.954 1.952 4.512 2.928 7.071 2.928z"/><path d="m368.474 354.379c-4.243-3.534-10.549-2.961-14.084 1.281l-.005.006c-3.536 4.242-2.96 10.545 1.283 14.081 1.869 1.557 4.138 2.316 6.395 2.316 2.867 0 5.714-1.227 7.692-3.601 3.535-4.241 2.962-10.547-1.281-14.083z"/></g></g></svg>