<svg id="Layer_1" enable-background="new 0 0 512 512" height="512" viewBox="0 0 512 512" width="512" xmlns="http://www.w3.org/2000/svg"><g><g><path d="m271.347 123.96h186.74c16.495 0 29.914-13.419 29.914-29.913.086-17.709-15.397-31.298-32.87-29.913 6.852-65.986-81.58-89.63-108.572-29.478-23.198-15.63-54.806-.787-60.298 26.729-.393 1.619-1.781 2.749-3.377 2.749h-11.537c-39.617 1.492-39.629 58.327 0 59.826zm0-44.827h11.537c8.541 0 15.924-5.845 17.953-14.213 2.827-11.65 9.646-18.761 20.267-21.135 7.869-1.758 16.21 1.144 22.313 7.764 2.182 2.365 5.464 3.314 8.568 2.479 3.096-.834 5.452-3.296 6.15-6.432 11.404-47.217 79.072-41.141 82.437 7.164.147 3.32-.089 6.628-.703 9.834-1.593 7.291 4.577 14.726 12.029 14.538h6.187c8.224 0 14.914 6.69 14.914 14.914s-6.69 14.914-14.914 14.914h-186.74c-19.704-.73-19.799-29.059.002-29.827z"/><path d="m508.41 400.227c-5.274-5.251-14.213-2.571-20.256-1.538l-12.399-20.144c-2.17-3.528-6.79-4.627-10.318-2.456-3.527 2.171-4.627 6.791-2.455 10.318l10.767 17.493c-19.083 9.931-25.788 23.801-52.085 23.685-18.237 0-26.913-6.415-36.959-13.843-23.508-20.496-62.154-23.203-87.909-2.814-12.905-13.499-28.633-25.054-47.113-34.619l37.495-60.921 5.868 5.868c3.704 3.701 9.729 3.7 13.434-.002l17.581-17.581 24.894 24.894c3.705 3.705 9.731 3.704 13.437 0l15.457-15.458 28.885 28.885c1.853 1.852 4.285 2.778 6.718 2.778s4.865-.926 6.718-2.778l9.582-9.582s14.891 24.195 14.891 24.195c5.403 8.246 17.727.786 12.775-7.862 0 0-92.146-149.721-92.146-149.721-2.594-4.214-7.097-6.729-12.045-6.729-4.947 0-9.45 2.516-12.044 6.729 0 0-105.126 170.81-105.126 170.81-19.479-8.488-41.61-15.032-66.29-19.608v-39.271l22.054 15.021c5.185 3.757 13.127.367 14.012-5.959 0 0 3.58-20.992 3.58-20.992l35.681 7.537c3.75.791 7.611-.877 9.602-4.156 1.991-3.281 1.691-7.479-.748-10.446-17.207-20.929-31.476-40.564-44.176-60.831l16.526 3.491c8.228 1.834 14.28-8.143 8.862-14.594-15.715-19.16-28.655-37.287-40.029-56.133l5.27 1.113c8.053 1.785 14.032-7.967 8.714-14.327-28.793-35.227-46.871-69.009-62.396-116.599-1.195-3.668-4.592-6.133-8.449-6.133-3.858 0-7.255 2.465-8.449 6.131-6.452 19.776-13.38 37.127-21.179 53.045-1.822 3.72-.284 8.212 3.436 10.035 3.719 1.824 8.212.284 10.035-3.435 5.808-11.853 11.141-24.441 16.151-38.144 12.867 35.3 27.882 63.389 48.799 91.278l-6.827-1.442c-2.351-.498-4.842-.008-6.832 1.343-1.989 1.351-3.362 3.485-3.769 5.858l-.969 5.683-12.484-8.503c-3.616-2.465-8.58-1.897-11.547 1.325l-6.365 6.916-6.367-6.918c-2.963-3.217-7.924-3.788-11.543-1.324l-12.481 8.503-.97-5.684c-.405-2.371-1.778-4.505-3.768-5.856-1.991-1.351-4.479-1.841-6.831-1.343l-6.826 1.441c5.624-7.494 10.734-14.889 15.452-22.351 5.036-8.529-7.117-16.24-12.68-8.015-7.154 11.317-15.277 22.5-24.83 34.186-5.306 6.333.636 16.135 8.712 14.329 0 0 5.273-1.114 5.273-1.114-11.375 18.849-24.318 36.977-40.033 56.132-5.415 6.449.63 16.43 8.861 14.596 0 0 16.53-3.491 16.53-3.491-12.701 20.27-26.971 39.905-44.177 60.829-2.439 2.966-2.741 7.164-.751 10.446 1.988 3.28 5.847 4.953 9.604 4.158l35.688-7.537s3.581 20.998 3.581 20.998c.887 6.328 8.845 9.71 14.015 5.951 0 0 22.042-15.017 22.042-15.017v32.225c-33.702-1.575-63.03.178-80.553 1.756-14.949 1.344-26.218 13.675-26.218 28.681v120.841c0 9.649 7.851 17.5 17.5 17.5h477c9.649 0 17.5-7.851 17.5-17.5v-85.89c0-3.141-1.309-6.181-3.59-8.342zm-155.185-192.155 68.443 111.207-8.218 8.218-30.299-30.299c-2.794-2.905-7.814-2.905-10.607 0 0 0-16.872 16.872-16.872 16.872l-26.308-26.309c-2.93-2.929-7.678-2.929-10.607 0l-18.995 18.995-4.502-4.502zm-258.419-37.364c1.177 5.936 8.741 8.908 13.648 5.342 0 0 15.984-10.889 15.984-10.889l7.289 7.92c1.68 1.822 4.064 2.867 6.542 2.866s4.86-1.047 6.536-2.869l7.287-7.917 15.99 10.891c4.919 3.566 12.466.591 13.645-5.341 9.283 15.469 19.557 30.438 31.449 45.804l-17.574-3.712c-4.861-1.129-10.05 2.397-10.789 7.332 0 0-2.18 12.78-2.18 12.78l-21.393-14.571c-3.684-2.51-8.735-1.929-11.754 1.35l-11.224 12.193-11.224-12.194c-3.017-3.277-8.07-3.858-11.752-1.35l-21.386 14.57-2.18-12.775c-.739-4.938-5.925-8.466-10.79-7.335 0 0-17.579 3.712-17.579 3.712 11.895-15.364 22.17-30.334 31.455-45.807zm-10.87 137.65-3.062-17.955c-.739-4.939-5.924-8.464-10.79-7.335 0 0-25.429 5.37-25.429 5.37 13.17-16.792 24.605-33.015 35.028-49.679l.991 5.812c.882 6.331 8.841 9.717 14.015 5.958 0 0 24.797-16.894 24.797-16.894l12.12 13.168c1.709 1.857 4.136 2.922 6.659 2.922 2.522 0 4.949-1.065 6.657-2.921l12.121-13.169 24.808 16.897c5.185 3.757 13.127.367 14.012-5.959 0 0 .991-5.808.991-5.808 10.421 16.66 21.855 32.882 35.023 49.674l-25.418-5.369c-4.868-1.129-10.047 2.388-10.794 7.332 0 0-3.063 17.959-3.063 17.959l-27.828-18.954c-3.681-2.51-8.733-1.93-11.754 1.349l-14.756 16.031-14.756-16.031c-3.018-3.279-8.071-3.859-11.752-1.35zm37.829 2.651 9.841 10.692c1.709 1.856 4.136 2.921 6.659 2.921 2.522 0 4.949-1.065 6.657-2.921l9.843-10.694v36.72c-11.168-1.647-22.241-2.827-33-3.636zm-94.207 48.867c68.773-8.117 203.648.501 256.865 59.847-7.255 4.579-15.399 7.862-28.429 7.862-18.235 0-26.911-6.415-36.956-13.843-26.495-22.489-65.328-22.434-91.749.001-10.046 7.427-18.721 13.842-36.957 13.842s-26.911-6.415-36.956-13.843c-9.39-6.943-19.988-14.753-38.375-16.436v-23.687c-.001-7.191 5.397-13.099 12.557-13.743zm469.442 134.583c0 1.378-1.121 2.5-2.5 2.5h-477c-1.379 0-2.5-1.122-2.5-2.5v-82.094c31.811 4.36 34.693 30.399 75.331 30.218 43.643.317 43.889-30.199 82.832-30.625 38.83.384 39.25 30.956 82.831 30.625 43.61.323 43.965-30.228 82.832-30.625 38.902.407 39.202 30.942 82.837 30.625 40.637.181 43.503-25.849 75.337-30.218z"/></g></g></svg>