<svg id="Capa_1" enable-background="new 0 0 512.002 512.002" height="512" viewBox="0 0 512.002 512.002" width="512" xmlns="http://www.w3.org/2000/svg"><g><g><g><g><g><g><path d="m504.502 130.391v342.82h-497v-431.101c0-16.11 13.06-29.17 29.17-29.17 15.28 0 27.81 11.75 29.06 26.71 27.63 1.79 49.48 24.75 49.48 52.83 0 1.02-.04 2.04-.09 3.05 13.96 1.41 24.99 12.67 26.09 26.72 10.04-4.02 20.99-6.26 32.47-6.26 43.07 0 78.84 31.16 86.06 72.15 12.69-10.66 29.05-17.09 46.92-17.09 3.05 0 6.04.21 8.99.57 9.66-19.27 27.96-33.45 49.82-37.48-1.29-3.01-2.01-6.33-2.01-9.81 0-13.8 11.18-24.98 24.98-24.98 6.26 0 11.98 2.31 16.37 6.12 8.91-16.68 26.49-28.04 46.73-28.04 29.25 0 52.96 23.711 52.96 52.961z" fill="#b5dbfd"/><path d="m504.502 257.81v215.4h-497v-303.68c0-16.11 13.06-29.17 29.17-29.17 15.28 0 27.81 11.75 29.06 26.7 27.63 1.8 49.48 24.76 49.48 52.84 0 1.02-.04 2.03-.09 3.04 13.96 1.42 24.99 12.68 26.09 26.73 10.04-4.02 20.99-6.26 32.47-6.26 43.07 0 78.84 31.16 86.06 72.15 12.69-10.66 29.05-17.09 46.92-17.09 3.05 0 6.04.21 8.99.57 9.66-19.27 27.96-33.45 49.82-37.48-1.29-3.01-2.01-6.33-2.01-9.82 0-13.79 11.18-24.97 24.98-24.97 6.26 0 11.98 2.31 16.37 6.12 8.91-16.68 26.49-28.04 46.73-28.04 29.25 0 52.96 23.71 52.96 52.96z" fill="#64b9fc"/></g><g><path d="m504.502 417.554v79.006c0 5.523-4.477 10-10 10h-477c-5.523 0-10-4.477-10-10v-25.751c116.974-38.794 242.073-59.783 372.052-59.783 42.199.001 83.885 2.22 124.948 6.528z" fill="#99d53b"/><path d="m504.502 417.551v32.9c-41.06-4.31-82.75-6.53-124.95-6.53-129.13 0-253.44 20.72-369.75 59.03-1.43-1.73-2.3-3.96-2.3-6.39v-25.75c116.97-38.79 242.07-59.78 372.05-59.78 42.2-.001 83.89 2.219 124.95 6.52z" fill="#8dc637"/><g><g><path d="m99.833 330.6c0 33.946-18.57 63.585-46.165 79.446-27.595-15.861-46.165-45.5-46.165-79.446 0-57.126 15.044-107.73 38.172-138.889 3.966-5.343 12.021-5.343 15.987 0 23.127 31.158 38.171 81.763 38.171 138.889z" fill="#0f7a4f"/><path d="m99.832 330.6c0 33.95-18.57 63.58-46.16 79.45-4.32-2.49-8.43-5.31-12.27-8.44 20.69-16.83 33.89-42.38 33.89-71.01 0-53.53-13.2-101.33-33.89-132.77 1.39-2.12 2.81-4.16 4.27-6.12 3.97-5.34 12.02-5.34 15.99 0 23.13 31.16 38.17 81.76 38.17 138.89z" fill="#0c6842"/></g><g><path d="m299.899 288.808c0 33.946-18.57 63.585-46.165 79.446-27.595-15.861-46.165-45.5-46.165-79.446 0-57.126 15.044-107.73 38.172-138.89 3.966-5.343 12.021-5.343 15.987 0 23.127 31.159 38.171 81.764 38.171 138.89z" fill="#0f7a4f"/><path d="m299.902 288.811c0 33.94-18.57 63.58-46.17 79.44-4.32-2.48-8.42-5.31-12.26-8.44 20.69-16.82 33.89-42.38 33.89-71 0-53.53-13.21-101.33-33.89-132.77 1.39-2.12 2.81-4.16 4.27-6.12 3.96-5.35 12.02-5.35 15.98 0 23.13 31.159 38.18 81.759 38.18 138.89z" fill="#0c6842"/></g><g><path d="m182.639 298.09c0 33.946-18.57 63.585-46.165 79.446-27.595-15.861-46.165-45.5-46.165-79.446 0-57.126 15.044-107.73 38.172-138.89 3.966-5.343 12.021-5.343 15.987 0 23.127 31.16 38.171 81.765 38.171 138.89z" fill="#2db181"/><path d="m182.642 298.09c0 33.95-18.57 63.59-46.17 79.45-4.32-2.48-8.42-5.31-12.26-8.44 20.69-16.82 33.89-42.38 33.89-71.01 0-53.53-13.21-101.33-33.89-132.77 1.39-2.12 2.81-4.16 4.27-6.12 3.96-5.34 12.02-5.34 15.98 0 23.13 31.16 38.18 81.76 38.18 138.89z" fill="#1ca56f"/></g></g></g></g></g><g><g><g><path d="m286.927 468.117v-50.932h29.705v50.932c0 2.761-2.239 5-5 5h-19.705c-2.761 0-5-2.239-5-5z" fill="#e2dee2"/><path d="m286.927 417.185h29.705v36.501h-29.705z" fill="#cbc5cb"/><path d="m447.604 468.117v-50.932h29.705v50.932c0 2.761-2.239 5-5 5h-19.705c-2.761 0-5-2.239-5-5z" fill="#e2dee2"/><path d="m447.604 417.185h29.705v36.501h-29.705z" fill="#cbc5cb"/></g><g fill="#b5adb6"><path d="m279.694 370.071h52.294v26.705h-52.294z" transform="matrix(0 1 -1 0 689.264 77.582)"/><path d="m432.249 370.071h52.294v26.705h-52.294z" transform="matrix(0 1 -1 0 841.819 -74.973)"/></g><path d="m490.221 431.42h-216.206c-7.887 0-14.281-6.394-14.281-14.281 0-7.887 6.394-14.281 14.281-14.281h216.207c7.887 0 14.281 6.394 14.281 14.281-.001 7.887-6.395 14.281-14.282 14.281z" fill="#c76d3d"/><path d="m504.502 417.14c0 3.95-1.6 7.51-4.18 10.1-2.58 2.58-6.16 4.18-10.1 4.18h-27.19c3.94 0 7.51-1.6 10.09-4.18 2.59-2.59 4.19-6.15 4.19-10.1 0-7.89-6.4-14.28-14.28-14.28h27.19c7.89 0 14.28 6.39 14.28 14.28z" fill="#aa5e33"/></g><path d="m476.252 373.861h-188.268c-5.523 0-10-4.477-10-10v-30.417c0-5.523 4.477-10 10-10h188.268c5.523 0 10 4.477 10 10v30.417c0 5.523-4.477 10-10 10z" fill="#c76d3d"/><path d="m486.252 333.44v30.42c0 5.52-4.48 10-10 10h-27.19c5.52 0 10-4.48 10-10v-30.42c0-5.52-4.48-10-10-10h27.19c5.52 0 10 4.48 10 10z" fill="#aa5e33"/></g></g></g><g><path d="m187.196 468.807c-1.105-3.991-5.231-6.333-9.229-5.226-3.992 1.105-6.332 5.237-5.226 9.229l3.275 11.826c.92 3.322 3.936 5.5 7.224 5.5.662 0 1.336-.089 2.006-.274 3.992-1.105 6.332-5.237 5.226-9.229z"/><path d="m212.156 463.582c-3.989-1.104-8.124 1.233-9.229 5.226l-3.276 11.826c-1.106 3.991 1.233 8.124 5.226 9.229.67.186 1.343.274 2.006.274 3.287 0 6.304-2.178 7.224-5.5l3.276-11.826c1.105-3.991-1.235-8.124-5.227-9.229z"/><path d="m490.221 395.358h-10.973v-14.273c8.224-1.428 14.504-8.598 14.504-17.224v-30.417c0-9.649-7.851-17.5-17.5-17.5h-172.645c2.512-8.787 3.792-17.88 3.792-27.137 0-15.472-1.095-30.868-3.253-45.762-.595-4.1-4.4-6.94-8.499-6.347-4.099.595-6.94 4.399-6.347 8.499 2.057 14.183 3.099 28.855 3.099 43.609 0 9.316-1.529 18.43-4.517 27.142-9.602.057-17.397 7.88-17.397 17.495v11.834c-2.872 3.152-5.958 6.078-9.251 8.753v-71.123l12.174-13.793c2.741-3.105 2.445-7.845-.66-10.586s-7.845-2.446-10.586.66l-.928 1.051v-40.088c0-4.143-3.357-7.5-7.5-7.5s-7.5 3.357-7.5 7.5v19.291l-.928-1.051c-2.741-3.106-7.482-3.402-10.586-.66-3.105 2.741-3.401 7.48-.66 10.586l12.174 13.793v28.664l-.928-1.051c-2.741-3.106-7.482-3.401-10.586-.66-3.105 2.741-3.401 7.48-.66 10.586l12.174 13.792v40.567c-19.484-15.865-31.165-39.808-31.165-65.203 0-53.213 13.718-103.463 36.694-134.419.632-.851 1.506-.978 1.971-.978s1.339.127 1.971.979c11.429 15.396 20.843 36.045 27.225 59.714 1.078 4 5.2 6.37 9.193 5.289 4-1.078 6.367-5.194 5.289-9.193-2.738-10.155-6.023-19.809-9.768-28.832 6.136-1.863 12.508-2.815 19.017-2.815 2.614 0 5.258.169 8.082.516.074.009.146.003.219.009 15.857 2.004 30.411 9.757 40.998 21.857 1.483 1.694 3.56 2.561 5.647 2.561 1.753 0 3.514-.611 4.936-1.855 3.118-2.729 3.434-7.466.706-10.583-10.563-12.072-24.348-20.622-39.6-24.732 9.348-12.865 23.41-21.901 39.179-24.805.35-.065.69-.162 1.023-.273.307-.008.616-.028.927-.074 3.1-.47 6.272-.707 9.431-.707 19.896 0 38.144 9.156 50.064 25.122 1.473 1.973 3.729 3.013 6.016 3.013 1.561 0 3.135-.485 4.481-1.49 3.319-2.479 4-7.178 1.522-10.497-14.563-19.504-37.772-31.147-62.084-31.147-2.391 0-4.788.124-7.17.343-.041-.491-.074-.983-.074-1.48 0-9.636 7.839-17.475 17.475-17.475 4.206 0 8.272 1.521 11.45 4.282 1.723 1.496 4.032 2.125 6.279 1.715 2.245-.414 4.18-1.828 5.256-3.841 7.935-14.85 23.307-24.074 40.118-24.074 25.066 0 45.459 20.393 45.459 45.459 0 4.143 3.357 7.5 7.5 7.5s7.5-3.357 7.5-7.5c0-33.337-27.122-60.459-60.459-60.459-19.628 0-37.779 9.451-49.057 25.116-4.352-2.089-9.148-3.198-14.047-3.198-17.906 0-32.475 14.568-32.475 32.475 0 1.457.096 2.9.285 4.326-18.709 5.553-34.861 18.149-44.817 35.05-1.618-.1-3.213-.15-4.772-.15-8.688 0-17.181 1.388-25.325 4.092-4.138-8.139-8.685-15.593-13.586-22.196-3.319-4.473-8.428-7.038-14.016-7.038-3.159 0-6.164.821-8.781 2.342-18.033-20.574-43.666-32.257-71.27-32.257-9.187 0-18.215 1.309-26.941 3.899-3.857-11.033-12.813-19.644-24.106-22.998-1.442-28.396-22.696-51.972-50.492-56.558-4.157-15.778-18.687-27.398-35.468-27.398-20.221 0-36.672 16.451-36.672 36.672 0 4.143 3.357 7.5 7.5 7.5s7.5-3.357 7.5-7.5c0-11.95 9.722-21.672 21.672-21.672 11.172 0 20.653 8.71 21.586 19.83.311 3.7 3.282 6.616 6.987 6.857 23.813 1.546 42.466 21.466 42.466 45.349 0 .803-.026 1.659-.082 2.62-.229 4.007 2.738 7.484 6.73 7.89 10.41 1.057 18.556 9.403 19.368 19.848.186 2.379 1.492 4.528 3.519 5.788 2.028 1.26 4.532 1.479 6.748.592 9.477-3.795 19.464-5.72 29.687-5.72 23.921 0 46.083 10.424 61.325 28.706-22.279 33.916-34.939 83.111-34.939 136.606 0 33.85 17.585 65.503 46.165 83.66v38.471c-34.298 3.828-68.438 9.156-102.261 15.958v-45.147c28.58-18.157 46.166-49.81 46.166-83.66 0-57.158-14.451-109.41-39.65-143.36-3.32-4.472-8.429-7.037-14.017-7.036-5.587 0-10.695 2.565-14.015 7.036-4.954 6.674-9.605 14.291-13.827 22.64-1.869 3.696-.388 8.208 3.31 10.077 3.698 1.868 8.209.388 10.077-3.31 3.837-7.59 8.038-14.476 12.485-20.467.631-.85 1.506-.977 1.971-.977.466 0 1.341.127 1.972.977 22.977 30.957 36.694 81.207 36.694 134.42 0 25.395-11.68 49.339-31.166 65.203v-19.771l12.174-13.792c2.741-3.105 2.445-7.845-.66-10.586s-7.845-2.446-10.586.66l-.928 1.051v-28.665l12.174-13.792c2.741-3.105 2.445-7.845-.66-10.586s-7.845-2.446-10.586.66l-.928 1.051v-40.088c0-4.143-3.357-7.5-7.5-7.5s-7.5 3.357-7.5 7.5v19.29l-.927-1.05c-2.741-3.106-7.481-3.402-10.586-.66-3.105 2.741-3.401 7.48-.66 10.586l12.173 13.792v28.664l-.927-1.05c-2.741-3.106-7.481-3.402-10.586-.66-3.105 2.741-3.401 7.48-.66 10.586l12.173 13.792v40.568c-19.485-15.864-31.165-39.807-31.165-65.203 0-30.051 4.333-59.488 12.53-85.129 1.262-3.945-.914-8.167-4.859-9.428-3.948-1.264-8.167.914-9.428 4.859-2.206 6.901-4.144 14.058-5.813 21.412-6.133-16.285-13.749-30.699-22.557-42.569-3.321-4.468-8.429-7.03-14.014-7.03s-10.692 2.563-14.018 7.034c-25.196 33.946-39.647 86.198-39.647 143.361 0 33.842 17.585 65.495 46.165 83.66v36.676c-13.759 4.01-27.443 8.25-41.026 12.754-3.931 1.305-6.062 5.549-4.758 9.48 1.045 3.147 3.974 5.141 7.118 5.141.782 0 1.578-.123 2.362-.383 14.677-4.868 29.465-9.444 44.349-13.726 1.037-.075 2.015-.358 2.893-.812 23.737-6.763 47.71-12.791 71.867-18.044v7.874c0 4.143 3.357 7.5 7.5 7.5s7.5-3.357 7.5-7.5v-11.032c35.588-7.252 71.537-12.859 107.657-16.773.719-.078 1.399-.26 2.036-.521 3.133 8.191 11.07 14.025 20.349 14.025h5.412v26.791h-4.693c-4.143 0-7.5 3.357-7.5 7.5s3.357 7.5 7.5 7.5h214.769c4.143 0 7.5-3.357 7.5-7.5s-3.357-7.5-7.5-7.5h-4.693v-26.791h5.412c12.01 0 21.781-9.771 21.781-21.781s-9.771-21.78-21.781-21.78zm-475.219-64.758c0-53.217 13.717-103.468 36.688-134.415.634-.853 1.511-.979 1.977-.979s1.343.127 1.973.975c12.673 17.079 22.703 40.213 29.058 66.951-1.251 11.458-1.89 23.169-1.89 34.959 0 14.42 3.193 28.442 9.064 41.194-2.291 22.25-13.441 42.535-30.705 56.546v-19.798l12.174-13.792c2.741-3.105 2.445-7.845-.66-10.586s-7.845-2.446-10.586.66l-.928 1.051v-28.666l12.174-13.793c2.741-3.105 2.445-7.845-.66-10.586s-7.845-2.446-10.586.66l-.928 1.051v-40.088c0-4.143-3.357-7.5-7.5-7.5s-7.5 3.357-7.5 7.5v19.29l-.927-1.05c-2.741-3.106-7.481-3.402-10.586-.66-3.105 2.74-3.401 7.48-.66 10.586l12.173 13.793v28.663l-.927-1.05c-2.741-3.106-7.481-3.402-10.586-.66-3.105 2.741-3.401 7.48-.66 10.586l12.173 13.792v40.566c-19.485-15.87-31.165-39.812-31.165-65.2zm46.165 116.072v-32.404c20.59-13.067 35.493-33.033 42.193-55.95 7.011 9.136 15.646 17.1 25.612 23.432v48.265c-22.774 4.887-45.39 10.445-67.805 16.657zm391.376-51.314v-13.997h11.705v13.997zm-167.058-61.914c0-1.379 1.121-2.5 2.5-2.5h188.268c1.379 0 2.5 1.121 2.5 2.5v30.417c0 1.379-1.121 2.5-2.5 2.5h-52.574c-4.143 0-7.5 3.357-7.5 7.5s3.357 7.5 7.5 7.5h13.865v13.997h-110.85v-13.997h64.324c4.143 0 7.5-3.357 7.5-7.5s-3.357-7.5-7.5-7.5h-103.033c-1.379 0-2.5-1.121-2.5-2.5zm14.504 47.917h11.705v13.997h-11.705zm-29.399-15.617c.836 7.771 6.781 14.019 14.399 15.341v14.273h-10.974c-4.772 0-9.188 1.547-12.781 4.16v-27.04c3.254-2.065 6.372-4.317 9.356-6.734zm38.541 73.175v26.697h-14.704v-26.697zm15 26.791v-26.791h115.974v26.791zm145.678-.093h-14.704v-26.697h14.704zm20.412-41.698h-216.206c-3.739 0-6.781-3.042-6.781-6.781 0-3.738 3.042-6.78 6.781-6.78h216.206c3.739 0 6.781 3.042 6.781 6.78 0 3.739-3.042 6.781-6.781 6.781z"/></g></g></svg>