<svg id="Capa_1" enable-background="new 0 0 512 512" height="512" viewBox="0 0 512 512" width="512" xmlns="http://www.w3.org/2000/svg"><g><path d="m424.871 380.197c0-24.575-19.993-44.567-44.567-44.567s-44.567 19.993-44.567 44.567 19.993 44.567 44.567 44.567 44.567-19.992 44.567-44.567zm-44.568 29.567c-16.304 0-29.567-13.264-29.567-29.567 0-16.304 13.264-29.567 29.567-29.567s29.567 13.264 29.567 29.567c.001 16.303-13.263 29.567-29.567 29.567z"/><path d="m387.803 308.158v-22.173c0-4.142-3.358-7.5-7.5-7.5s-7.5 3.358-7.5 7.5v22.173c0 4.142 3.358 7.5 7.5 7.5s7.5-3.358 7.5-7.5z"/><path d="m431.242 336.758c1.919 0 3.839-.732 5.303-2.197l15.679-15.679c2.929-2.929 2.929-7.678 0-10.606-2.929-2.929-7.678-2.929-10.606 0l-15.679 15.679c-2.929 2.929-2.929 7.678 0 10.606 1.464 1.464 3.384 2.197 5.303 2.197z"/><path d="m482.015 380.197c0-4.142-3.358-7.5-7.5-7.5h-22.173c-4.142 0-7.5 3.358-7.5 7.5s3.358 7.5 7.5 7.5h22.173c4.142 0 7.5-3.358 7.5-7.5z"/><path d="m441.618 452.118c1.464 1.464 3.384 2.197 5.303 2.197s3.839-.732 5.303-2.197c2.929-2.929 2.929-7.678 0-10.607l-15.679-15.679c-2.929-2.929-7.678-2.929-10.606 0-2.929 2.929-2.929 7.678 0 10.607z"/><path d="m372.803 452.236v22.173c0 4.142 3.358 7.5 7.5 7.5s7.5-3.358 7.5-7.5v-22.173c0-4.142-3.358-7.5-7.5-7.5s-7.5 3.358-7.5 7.5z"/><path d="m313.685 454.315c1.919 0 3.839-.732 5.303-2.197l15.679-15.679c2.929-2.929 2.929-7.678 0-10.607s-7.678-2.929-10.607 0l-15.679 15.679c-2.929 2.929-2.929 7.678 0 10.607 1.465 1.464 3.385 2.197 5.304 2.197z"/><path d="m278.591 380.197c0 4.142 3.358 7.5 7.5 7.5h22.173c4.142 0 7.5-3.358 7.5-7.5s-3.358-7.5-7.5-7.5h-22.173c-4.142 0-7.5 3.358-7.5 7.5z"/><path d="m324.06 334.561c1.464 1.464 3.384 2.197 5.303 2.197s3.839-.732 5.303-2.197c2.929-2.929 2.929-7.678 0-10.606l-15.679-15.679c-2.929-2.929-7.678-2.929-10.606 0-2.929 2.929-2.929 7.678 0 10.606z"/><path d="m113.29 443.79c3.563.877 7.211 1.489 10.907 1.844v28.775c0 4.142 3.358 7.5 7.5 7.5s7.5-3.358 7.5-7.5v-28.775c3.696-.355 7.344-.968 10.908-1.844 23.8-5.858 63.99-20.409 65.748-52.055.195-3.516-2.081-6.693-5.472-7.64-.795-.222-12.427-3.37-26.234-2.183 8.53-13.897 15.775-33.727 10.686-57.496-.741-3.459-3.797-5.93-7.334-5.93-.9 0-17.454.148-32.964 10.107-.952-14.626-4.735-35.111-17.534-47.91-1.406-1.407-3.314-2.197-5.303-2.197s-3.897.79-5.303 2.197c-13.33 13.331-17.07 33.298-17.862 47.701-15.414-9.751-31.742-9.898-32.636-9.898-3.537 0-6.593 2.471-7.334 5.93-5.089 23.77 2.156 43.599 10.687 57.496-13.804-1.19-25.439 1.961-26.234 2.183-3.391.947-5.667 4.125-5.472 7.64 1.756 31.646 41.946 46.198 65.746 52.055zm-15.56-39.908c3.232 2.539 7.902 2.005 10.477-1.196 2.576-3.201 2.097-7.878-1.074-10.49-.302-.248-28.325-23.788-24.941-58.004 7.425 1.316 19.8 5.074 28.296 15.787 2.088 2.632 5.671 3.555 8.772 2.258 3.099-1.297 4.958-4.497 4.549-7.832-1.04-8.472-1.186-30.832 7.843-46.125 10.258 17.918 7.937 46.05 7.909 46.366-.297 3.302 1.608 6.407 4.687 7.637 3.078 1.231 6.599.293 8.66-2.304 8.501-10.719 20.887-14.475 28.302-15.789 3.419 33.946-23.732 56.995-24.962 58.018-3.158 2.615-3.632 7.283-1.06 10.478 2.575 3.201 7.247 3.733 10.477 1.196 10.416-8.184 25.267-7.764 33.846-6.619-2.6 6.832-8.817 13.138-18.567 18.811-11.516 6.701-25.076 10.849-34.423 13.149-2.392.589-4.843 1.03-7.323 1.324v-43.785c0-4.142-3.358-7.5-7.5-7.5s-7.5 3.358-7.5 7.5v43.785c-2.48-.294-4.931-.736-7.323-1.324-9.347-2.3-22.907-6.449-34.423-13.149-9.739-5.667-15.954-11.964-18.558-18.788 8.604-1.123 23.5-1.525 33.836 6.596z"/><path d="m385.381 39.351c-2.87-2.642-7.286-2.642-10.156 0-1.96 1.803-48.001 44.636-48.001 85.745 0 37.593 18.763 65.719 45.579 70.149v23.492c0 4.142 3.358 7.5 7.5 7.5s7.5-3.358 7.5-7.5v-23.492c26.816-4.43 45.579-32.556 45.579-70.149 0-41.109-46.041-83.942-48.001-85.745zm2.422 140.564v-54.966c0-4.142-3.358-7.5-7.5-7.5s-7.5 3.358-7.5 7.5v54.966c-18.1-4.683-30.579-26.294-30.579-54.82 0-27.269 26.668-57.831 38.079-69.659 11.413 11.831 38.079 42.393 38.079 69.659 0 28.526-12.479 50.137-30.579 54.82z"/><path d="m47.53 131.952c0 4.142 3.358 7.5 7.5 7.5h12.505l-14.149 14.149c-2.929 2.929-2.929 7.678 0 10.606 1.464 1.464 3.384 2.197 5.303 2.197 1.92 0 3.839-.732 5.303-2.197l24.755-24.755h24.693l-35.913 35.913c-2.929 2.929-2.929 7.678 0 10.607 1.464 1.464 3.384 2.197 5.303 2.197 1.92 0 3.839-.732 5.303-2.197l36.211-36.211v24.991l-24.755 24.755c-2.929 2.929-2.929 7.678 0 10.606 1.464 1.464 3.384 2.197 5.303 2.197 1.92 0 3.839-.732 5.303-2.197l14.149-14.149v12.505c0 4.142 3.358 7.5 7.5 7.5s7.5-3.358 7.5-7.5v-12.505l14.149 14.149c1.464 1.464 3.384 2.197 5.303 2.197s3.839-.732 5.303-2.197c2.929-2.929 2.929-7.678 0-10.606l-24.755-24.755v-24.693l35.913 35.913c1.464 1.464 3.384 2.197 5.303 2.197s3.839-.732 5.303-2.197c2.929-2.929 2.929-7.678 0-10.607l-35.913-35.913h24.307l24.457 24.457c1.464 1.464 3.384 2.197 5.303 2.197s3.839-.732 5.303-2.197c2.929-2.929 2.929-7.678 0-10.606l-13.851-13.851h12.892c4.142 0 7.5-3.358 7.5-7.5s-3.358-7.5-7.5-7.5h-13.488l14.447-14.447c2.929-2.929 2.929-7.678 0-10.606-2.929-2.929-7.678-2.929-10.607 0l-25.054 25.054h-24.008l36.211-36.211c2.929-2.929 2.929-7.678 0-10.606-2.929-2.929-7.678-2.929-10.606 0l-35.913 35.913v-24.308l24.456-24.457c2.929-2.929 2.929-7.678 0-10.606-2.929-2.929-7.678-2.929-10.606 0l-13.85 13.85v-12.892c0-4.142-3.358-7.5-7.5-7.5s-7.5 3.358-7.5 7.5v13.488l-14.447-14.447c-2.929-2.929-7.678-2.929-10.606 0-2.929 2.929-2.929 7.678 0 10.606l25.054 25.054v24.008l-36.209-36.21c-2.929-2.929-7.678-2.929-10.606 0-2.929 2.929-2.929 7.678 0 10.606l36.211 36.211h-24.992l-24.755-24.755c-2.929-2.929-7.678-2.929-10.606 0-2.929 2.929-2.929 7.678 0 10.606l14.149 14.148h-12.506c-4.142.001-7.5 3.359-7.5 7.501z"/><path d="m504.5 328.918c4.142 0 7.5-3.358 7.5-7.5v-292.459c0-15.91-12.944-28.853-28.854-28.853h-454.292c-15.91 0-28.854 12.944-28.854 28.853v72.993c0 4.142 3.358 7.5 7.5 7.5s7.5-3.358 7.5-7.5v-72.993c0-7.639 6.215-13.853 13.854-13.853h219.54v233.394h-233.394v-116.548c0-4.142-3.358-7.5-7.5-7.5s-7.5 3.358-7.5 7.5v351.088c0 15.91 12.944 28.854 28.854 28.854h454.293c15.91 0 28.854-12.944 28.854-28.854v-131.622c0-4.142-3.358-7.5-7.5-7.5s-7.5 3.358-7.5 7.5v131.622c0 7.639-6.215 13.854-13.854 13.854h-219.753v-233.394h233.606v57.918c0 4.142 3.358 7.5 7.5 7.5zm-256.106 167.976h-219.54c-7.639 0-13.854-6.215-13.854-13.854v-219.54h233.394zm15-248.394v-233.394h219.752c7.639 0 13.854 6.215 13.854 13.853v219.541z"/></g></svg>