<svg id="Layer_1" enable-background="new 0 0 512 512" height="512" viewBox="0 0 512 512" width="512" xmlns="http://www.w3.org/2000/svg"><g><g><g><path d="m497 256c0 133.101-107.9 241-241 241-133.098 0-241-107.899-241-241 0-133.104 107.902-241 241-241 133.1 0 241 107.896 241 241z" fill="#54e360"/></g></g><g><path d="m437.019 74.979c-48.352-48.35-112.64-74.979-181.019-74.979s-132.666 26.629-181.018 74.979c-48.353 48.353-74.982 112.64-74.982 181.021 0 68.38 26.629 132.667 74.982 181.02 48.352 48.351 112.639 74.98 181.018 74.98s132.667-26.629 181.019-74.98c48.353-48.353 74.981-112.64 74.981-181.02 0-68.381-26.628-132.668-74.981-181.021zm-181.019 407.021c-124.617 0-226-101.383-226-226s101.383-226 226-226 226 101.383 226 226-101.383 226-226 226z"/><path d="m429.075 200.316c-69.508-31.201-143.688-47.021-220.481-47.021-38.186 0-76.313 4.015-113.32 11.933-8.101 1.732-13.263 9.705-11.53 17.807 1.733 8.101 9.705 13.267 17.806 11.529 34.949-7.477 70.963-11.269 107.043-11.269 72.53 0 142.577 14.935 208.196 44.39 1.994.896 4.08 1.319 6.133 1.319 5.728-.001 11.197-3.298 13.693-8.861 3.393-7.557.017-16.434-7.54-19.827z"/><path d="m366.799 341.645c-49.848-22.535-103.076-33.961-158.208-33.961-29.336 0-58.574 3.318-86.903 9.862-8.072 1.864-13.104 9.92-11.239 17.991 1.865 8.072 9.92 13.104 17.991 11.239 26.118-6.034 53.085-9.093 80.151-9.093 50.841 0 99.912 10.529 145.85 31.297 2.006.906 4.104 1.336 6.17 1.336 5.713 0 11.172-3.281 13.678-8.825 3.413-7.548.059-16.434-7.49-19.846z"/><path d="m398.43 269.855c-59.838-26.938-123.709-40.595-189.838-40.595-33.828 0-67.583 3.669-100.327 10.905-8.089 1.787-13.197 9.794-11.41 17.883 1.788 8.09 9.796 13.201 17.883 11.41 30.622-6.768 62.198-10.198 93.853-10.198 61.856 0 121.583 12.769 177.524 37.95 1.999.9 4.091 1.326 6.148 1.326 5.722 0 11.187-3.291 13.688-8.847 3.401-7.552.034-16.433-7.521-19.834z"/></g></g></svg>