<svg id="Layer_1" enable-background="new 0 0 512 512" height="512" viewBox="0 0 512 512" width="512" xmlns="http://www.w3.org/2000/svg"><path d="m437.019 74.979c-48.352-48.351-112.639-74.979-181.019-74.979-68.379 0-132.666 26.628-181.018 74.979-48.353 48.352-74.982 112.64-74.982 181.021 0 68.38 26.629 132.667 74.982 181.02 48.352 48.351 112.639 74.98 181.018 74.98 68.38 0 132.667-26.629 181.019-74.98 48.352-48.353 74.981-112.64 74.981-181.02 0-68.381-26.629-132.669-74.981-181.021zm-62.729 286.512c-2.507 5.544-7.965 8.824-13.678 8.825-2.066 0-4.165-.43-6.17-1.336-45.939-20.767-95.01-31.297-145.851-31.297-27.066 0-54.033 3.06-80.151 9.093-8.071 1.86-16.126-3.168-17.991-11.239s3.167-16.126 11.239-17.991c28.329-6.544 57.567-9.862 86.903-9.862 55.131 0 108.36 11.426 158.208 33.961 7.55 3.412 10.903 12.297 7.491 19.846zm31.662-71.801c-2.502 5.556-7.967 8.847-13.688 8.847-2.059 0-4.15-.426-6.148-1.326-55.941-25.182-115.669-37.95-177.524-37.95-31.655 0-63.231 3.432-93.853 10.198-8.089 1.79-16.096-3.32-17.883-11.409-1.788-8.09 3.321-16.097 11.41-17.884 32.744-7.236 66.499-10.905 100.327-10.905 66.13 0 130.001 13.658 189.839 40.595 7.553 3.4 10.921 12.281 7.52 19.834zm30.664-69.546c-2.497 5.563-7.967 8.861-13.693 8.861-2.053 0-4.139-.424-6.134-1.319-65.618-29.455-135.665-44.39-208.195-44.39-36.08 0-72.095 3.791-107.043 11.269-8.1 1.739-16.073-3.428-17.806-11.529s3.429-16.073 11.53-17.807c37.007-7.918 75.134-11.933 113.32-11.933 76.792 0 150.974 15.82 220.48 47.021 7.557 3.392 10.934 12.269 7.541 19.827z"/></svg>